<svg xmlns="http://www.w3.org/2000/svg" width="18" height="18"><path d="M18 15.2c0 1.6-1.3 2.8-2.8 2.8H2.8C1.3 18 0 16.7 0 15.2V2.8C0 1.3 1.3 0 2.8 0h12.3C16.7 0 18 1.3 18 2.8v12.4z" fill="#1f1e44"/><path d="M5.9 14.3V3.7h4c.4 0 .8.1 1.1.3.3.2.6.5.9.8.3.3.4.7.6 1.1.1.4.2.8.2 1.2 0 .4-.1.9-.2 1.3s-.3.8-.6 1.1c-.2.3-.5.6-.9.8-.3.2-.7.3-1.1.3H6.8v3.9h-.9zm.9-4.8h3.1c.3 0 .5-.1.8-.2.2-.1.4-.3.6-.5.2-.2.3-.5.4-.8.1-.3.1-.6.1-.9 0-.3-.1-.6-.2-.9-.1-.3-.2-.6-.4-.8-.2-.2-.4-.4-.6-.5-.2-.1-.5-.2-.7-.2h-3v4.8z" fill="#fff"/></svg>